<svg xmlns="http://www.w3.org/2000/svg" viewBox="0 0 512 512" width="512" height="512">
  <defs>
    <linearGradient id="g1" x1="0" y1="0" x2="1" y2="1">
      <stop offset="0%" stop-color="#58a6ff"/>
      <stop offset="100%" stop-color="#bc8cff"/>
    </linearGradient>
    <linearGradient id="g2" x1="0" y1="0" x2="0" y2="1">
      <stop offset="0%" stop-color="#79c0ff"/>
      <stop offset="100%" stop-color="#d2a8ff"/>
    </linearGradient>
    <linearGradient id="bg" x1="0" y1="0" x2="1" y2="1">
      <stop offset="0%" stop-color="#131a27"/>
      <stop offset="100%" stop-color="#0d1117"/>
    </linearGradient>
  </defs>
  <rect width="512" height="512" rx="96" fill="url(#bg)"/>
  <rect x="308" y="96" width="18" height="248" rx="9" fill="url(#g2)"/>
  <path d="M326 96 C 370 96, 400 130, 390 170 C 380 200, 340 195, 326 180"
        fill="none" stroke="url(#g1)" stroke-width="16" stroke-linecap="round" stroke-linejoin="round"/>
  <path d="M326 140 C 365 140, 388 170, 380 205 C 372 232, 338 228, 326 216"
        fill="none" stroke="url(#g1)" stroke-width="14" stroke-linecap="round" stroke-linejoin="round" opacity="0.55"/>
  <ellipse cx="270" cy="344" rx="62" ry="48" transform="rotate(-20, 270, 344)" fill="url(#g1)"/>
  <line x1="100" y1="290" x2="412" y2="290" stroke="#58a6ff" stroke-width="2" opacity="0.12"/>
  <line x1="100" y1="344" x2="412" y2="344" stroke="#58a6ff" stroke-width="2" opacity="0.12"/>
  <line x1="100" y1="398" x2="412" y2="398" stroke="#58a6ff" stroke-width="2" opacity="0.12"/>
</svg>
